<svg width="72" height="72" viewBox="0 0 72 72" fill="none" xmlns="http://www.w3.org/2000/svg">
<g clip-path="url(#clip0_1077_536)">
<g clip-path="url(#clip1_1077_536)">
<path opacity="0.4" d="M64.3718 36.1923C65.1163 51.378 53.5471 63.2046 38.5317 62.6074C23.5162 62.0109 10.7402 49.2164 9.99569 34.0307C9.25111 18.8451 20.82 7.01846 35.8354 7.61539C50.8509 8.21232 63.6268 21.0066 64.3718 36.1923Z" fill="url(#paint0_radial_1077_536)"/>
<path d="M36 69.7323C54.6295 69.7323 69.7316 54.6302 69.7316 36.0008C69.7316 17.3714 54.6295 2.26929 36 2.26929C17.3707 2.26929 2.26855 17.3714 2.26855 36.0008C2.26855 54.6302 17.3707 69.7323 36 69.7323Z" fill="url(#paint1_radial_1077_536)"/>
<path d="M62.0045 37.9685C62.749 53.1542 51.18 64.9807 36.1645 64.3836C21.1491 63.7871 8.37302 50.9926 7.6285 35.8068C6.88392 20.6211 18.4528 8.79458 33.4683 9.39151C48.4837 9.98848 61.2595 22.7828 62.0045 37.9685Z" fill="url(#paint2_radial_1077_536)"/>
<path opacity="0.5" d="M64.3718 36.1923C65.1163 51.378 53.5471 63.2046 38.5317 62.6074C23.5162 62.0109 10.7402 49.2164 9.99569 34.0307C9.25111 18.8451 20.82 7.01846 35.8354 7.61539C50.8509 8.21232 63.6268 21.0066 64.3718 36.1923Z" fill="url(#paint3_radial_1077_536)"/>
<path opacity="0.6" d="M36.8877 60.263C48.4902 60.263 57.896 50.8574 57.896 39.2548C57.896 27.6522 48.4902 18.2466 36.8877 18.2466C25.2852 18.2466 15.8795 27.6522 15.8795 39.2548C15.8795 50.8574 25.2852 60.263 36.8877 60.263Z" fill="url(#paint4_radial_1077_536)"/>
<path fill-rule="evenodd" clip-rule="evenodd" d="M39.0427 42.1868L46.1971 35.7633L48.7179 38.4797L38.8719 47.3198L37.8213 48.263L36.5988 47.3198L25.1407 38.4797L27.1661 35.7633L35.492 42.1868L33.6329 21.7988H37.1836L39.0427 42.1868Z" fill="url(#paint5_radial_1077_536)"/>
<path opacity="0.4" fill-rule="evenodd" clip-rule="evenodd" d="M61.3051 34.976C61.43 35.3977 62.0295 35.3326 62.0082 34.8934C61.3442 21.3405 49.957 9.92201 36.5737 9.38918C34.4817 9.30592 32.4646 9.49357 30.5528 9.92132C30.1557 10.0102 30.2375 10.5615 30.6441 10.5777C44.886 11.1431 57.3284 21.4985 61.3051 34.976Z" fill="url(#paint6_radial_1077_536)"/>
</g>
</g>
<defs>
<radialGradient id="paint0_radial_1077_536" cx="0" cy="0" r="1" gradientUnits="userSpaceOnUse" gradientTransform="translate(52.761 20.317) rotate(135) scale(49.2989)">
<stop stop-color="#FFDCCC"/>
<stop offset="0.333333" stop-color="#FFBDC0"/>
<stop offset="0.666667" stop-color="#F89DC6"/>
<stop offset="1" stop-color="#E4A1FA"/>
</radialGradient>
<radialGradient id="paint1_radial_1077_536" cx="0" cy="0" r="1" gradientUnits="userSpaceOnUse" gradientTransform="translate(36.0001 36.1812) rotate(-90) scale(33.9119 33.9119)">
<stop offset="0.782019" stop-color="#982DBE"/>
<stop offset="0.906819" stop-color="#B038DC" stop-opacity="0.2"/>
<stop offset="1" stop-color="#E4A1FA" stop-opacity="0"/>
</radialGradient>
<radialGradient id="paint2_radial_1077_536" cx="0" cy="0" r="1" gradientUnits="userSpaceOnUse" gradientTransform="translate(52.5698 19.9171) rotate(135) scale(52.3763)">
<stop stop-color="#FFA984"/>
<stop offset="0.333333" stop-color="#FF787F"/>
<stop offset="0.666667" stop-color="#F45FA2"/>
<stop offset="1" stop-color="#C44AF1"/>
</radialGradient>
<radialGradient id="paint3_radial_1077_536" cx="0" cy="0" r="1" gradientUnits="userSpaceOnUse" gradientTransform="translate(52.761 20.317) rotate(135) scale(49.2989)">
<stop stop-color="#FFDCCC"/>
<stop offset="0.333333" stop-color="#FFBDC0"/>
<stop offset="0.666667" stop-color="#F89DC6"/>
<stop offset="1" stop-color="#E4A1FA"/>
</radialGradient>
<radialGradient id="paint4_radial_1077_536" cx="0" cy="0" r="1" gradientUnits="userSpaceOnUse" gradientTransform="translate(36.8877 39.2548) scale(21.0082)">
<stop stop-color="white"/>
<stop offset="1" stop-color="white" stop-opacity="0"/>
</radialGradient>
<radialGradient id="paint5_radial_1077_536" cx="0" cy="0" r="1" gradientUnits="userSpaceOnUse" gradientTransform="translate(31.2658 32.155) rotate(39.5226) scale(15.3436)">
<stop stop-color="#EF7744"/>
<stop offset="0.2406" stop-color="#E50914"/>
<stop offset="1" stop-color="#792A95"/>
</radialGradient>
<radialGradient id="paint6_radial_1077_536" cx="0" cy="0" r="1" gradientUnits="userSpaceOnUse" gradientTransform="translate(50.4986 21.5014) rotate(-180) scale(29.589 29.589)">
<stop stop-color="white"/>
<stop offset="1" stop-color="white" stop-opacity="0"/>
</radialGradient>
<clipPath id="clip0_1077_536">
<rect width="72" height="72" fill="white"/>
</clipPath>
<clipPath id="clip1_1077_536">
<rect width="72" height="72" fill="white"/>
</clipPath>
</defs>
</svg>
