<svg width="72" height="72" viewBox="0 0 72 72" fill="none" xmlns="http://www.w3.org/2000/svg">
<g clip-path="url(#clip0_1077_564)">
<g clip-path="url(#clip1_1077_564)">
<path d="M11.1453 15.8802C11.1453 13.2657 13.2648 11.146 15.8794 11.146H40.7343C43.3489 11.146 45.4686 13.2656 45.4686 15.8802V40.7349C45.4686 43.3495 43.3489 45.4692 40.7343 45.4692H15.8795C13.2648 45.4692 11.1453 43.3496 11.1453 40.7349V15.8802Z" fill="url(#paint0_radial_1077_564)"/>
<path d="M9.96167 14.6974C9.96167 12.0828 12.0813 9.9632 14.6959 9.9632H39.5507C42.1654 9.9632 44.285 12.0828 44.285 14.6974V39.5521C44.285 42.1668 42.1654 44.2864 39.5507 44.2864H14.6959C12.0813 44.2865 9.96167 42.1668 9.96167 39.5521V14.6974Z" fill="url(#paint1_radial_1077_564)"/>
<path d="M18.8383 22.0939C18.8383 23.2379 17.9109 24.1652 16.767 24.1652C15.6231 24.1652 14.6958 23.2379 14.6958 22.0939C14.6958 20.95 15.6231 20.0227 16.767 20.0227C17.9109 20.0227 18.8383 20.95 18.8383 22.0939Z" fill="url(#paint2_radial_1077_564)"/>
<path d="M39.5507 22.0939C39.5507 23.2379 38.6233 24.1652 37.4794 24.1652C36.3355 24.1652 35.4082 23.2379 35.4082 22.0939C35.4082 20.95 36.3355 20.0227 37.4794 20.0227C38.6233 20.0227 39.5507 20.95 39.5507 22.0939Z" fill="url(#paint3_radial_1077_564)"/>
<path d="M23.8403 29.5398C23.4186 29.2899 22.8741 29.4291 22.6242 29.8509C22.3742 30.2727 22.5135 30.8172 22.9353 31.0671C23.9923 31.6935 26.8956 32.8186 30.7111 32.8186C34.5266 32.8186 37.43 31.6935 38.4869 31.0671C38.9087 30.8172 39.048 30.2727 38.7981 29.8509C38.5481 29.4291 38.0036 29.2899 37.5819 29.5398C36.808 29.9984 34.2189 31.0432 30.7111 31.0432C27.2033 31.0432 24.6143 29.9984 23.8403 29.5398Z" fill="url(#paint4_radial_1077_564)"/>
<path opacity="0.35" d="M19.4302 44.2865H28.3069L32.4494 27.7167C30.3571 28.2873 28.5576 29.6272 27.4114 31.4683L19.4302 44.2865Z" fill="url(#paint5_radial_1077_564)"/>
<path d="M27.7151 32.4509C27.7151 29.8362 29.8347 27.7167 32.4493 27.7167H57.3041C59.9186 27.7167 62.0384 29.8362 62.0384 32.4509V57.3056C62.0384 59.9202 59.9186 62.04 57.3041 62.04H32.4493C29.8347 62.04 27.7151 59.9202 27.7151 57.3057V32.4509Z" fill="url(#paint6_radial_1077_564)"/>
<path d="M36.5917 39.8474C36.5917 40.9913 35.6644 41.9186 34.5205 41.9186C33.3765 41.9186 32.4492 40.9913 32.4492 39.8474C32.4492 38.7034 33.3765 37.7761 34.5205 37.7761C35.6644 37.7761 36.5917 38.7034 36.5917 39.8474Z" fill="url(#paint7_radial_1077_564)"/>
<path d="M57.3041 39.8474C57.3041 40.9913 56.3768 41.9186 55.2329 41.9186C54.0889 41.9186 53.1616 40.9913 53.1616 39.8474C53.1616 38.7034 54.0889 37.7761 55.2329 37.7761C56.3768 37.7761 57.3041 38.7034 57.3041 39.8474Z" fill="url(#paint8_radial_1077_564)"/>
<path d="M41.7415 47.4435C41.3197 47.1935 40.7752 47.3329 40.5253 47.7546C40.2754 48.1764 40.4146 48.7209 40.8365 48.9707C41.8934 49.5971 44.7968 50.7222 48.6123 50.7222C52.4278 50.7222 55.331 49.5971 56.3881 48.9707C56.8098 48.7209 56.9492 48.1764 56.6991 47.7546C56.4492 47.3329 55.9048 47.1935 55.483 47.4435C54.7091 47.9021 52.12 48.9469 48.6123 48.9469C45.1045 48.9469 42.5153 47.9021 41.7415 47.4435Z" fill="url(#paint9_radial_1077_564)"/>
</g>
</g>
<defs>
<radialGradient id="paint0_radial_1077_564" cx="0" cy="0" r="1" gradientUnits="userSpaceOnUse" gradientTransform="translate(39.0329 17.939) rotate(135) scale(32.3603)">
<stop stop-color="#99421D"/>
<stop offset="0.333333" stop-color="#99161D"/>
<stop offset="0.666667" stop-color="#7D1845"/>
<stop offset="1" stop-color="#59216E"/>
</radialGradient>
<radialGradient id="paint1_radial_1077_564" cx="0" cy="0" r="1" gradientUnits="userSpaceOnUse" gradientTransform="translate(62.0384 9.0755) rotate(133.87) scale(74.2898 74.2898)">
<stop stop-color="#FFDCCC"/>
<stop offset="0.333333" stop-color="#FFBDC0"/>
<stop offset="0.666667" stop-color="#F89DC6"/>
<stop offset="1" stop-color="#E4A1FA"/>
</radialGradient>
<radialGradient id="paint2_radial_1077_564" cx="0" cy="0" r="1" gradientUnits="userSpaceOnUse" gradientTransform="translate(59.967 11.4419) rotate(133.939) scale(67.8009 55.1882)">
<stop stop-color="#99421D"/>
<stop offset="0.333333" stop-color="#99161D"/>
<stop offset="0.666667" stop-color="#7D1845"/>
<stop offset="1" stop-color="#59216E"/>
</radialGradient>
<radialGradient id="paint3_radial_1077_564" cx="0" cy="0" r="1" gradientUnits="userSpaceOnUse" gradientTransform="translate(59.9671 11.4419) rotate(133.939) scale(67.8009 55.1882)">
<stop stop-color="#99421D"/>
<stop offset="0.333333" stop-color="#99161D"/>
<stop offset="0.666667" stop-color="#7D1845"/>
<stop offset="1" stop-color="#59216E"/>
</radialGradient>
<radialGradient id="paint4_radial_1077_564" cx="0" cy="0" r="1" gradientUnits="userSpaceOnUse" gradientTransform="translate(59.9673 11.4405) rotate(133.939) scale(67.8009 55.1883)">
<stop stop-color="#99421D"/>
<stop offset="0.333333" stop-color="#99161D"/>
<stop offset="0.666667" stop-color="#7D1845"/>
<stop offset="1" stop-color="#59216E"/>
</radialGradient>
<radialGradient id="paint5_radial_1077_564" cx="0" cy="0" r="1" gradientUnits="userSpaceOnUse" gradientTransform="translate(39.5507 28.0126) rotate(135) scale(23.0148)">
<stop stop-color="#FFA984"/>
<stop offset="0.333333" stop-color="#FF787F"/>
<stop offset="0.666667" stop-color="#F45FA2"/>
<stop offset="1" stop-color="#C44AF1"/>
</radialGradient>
<radialGradient id="paint6_radial_1077_564" cx="0" cy="0" r="1" gradientUnits="userSpaceOnUse" gradientTransform="translate(61.4466 29.7879) rotate(135) scale(42.6821)">
<stop stop-color="#EF7744"/>
<stop offset="0.333333" stop-color="#E50914"/>
<stop offset="0.666667" stop-color="#A70D53"/>
<stop offset="1" stop-color="#792A95"/>
</radialGradient>
<radialGradient id="paint7_radial_1077_564" cx="0" cy="0" r="1" gradientUnits="userSpaceOnUse" gradientTransform="translate(61.7424 11.4419) rotate(137.146) scale(72.6523 59.5308)">
<stop stop-color="#FFDCCC"/>
<stop offset="0.333333" stop-color="#FDF6F6"/>
<stop offset="0.666667" stop-color="#FADCE9"/>
<stop offset="1" stop-color="#E4A1FA"/>
</radialGradient>
<radialGradient id="paint8_radial_1077_564" cx="0" cy="0" r="1" gradientUnits="userSpaceOnUse" gradientTransform="translate(61.7424 11.4419) rotate(137.146) scale(72.6523 59.5308)">
<stop stop-color="#FFDCCC"/>
<stop offset="0.333333" stop-color="#FDF6F6"/>
<stop offset="0.666667" stop-color="#FADCE9"/>
<stop offset="1" stop-color="#E4A1FA"/>
</radialGradient>
<radialGradient id="paint9_radial_1077_564" cx="0" cy="0" r="1" gradientUnits="userSpaceOnUse" gradientTransform="translate(61.7424 11.4428) rotate(137.146) scale(72.6523 59.5308)">
<stop stop-color="#FFDCCC"/>
<stop offset="0.333333" stop-color="#FDF6F6"/>
<stop offset="0.666667" stop-color="#FADCE9"/>
<stop offset="1" stop-color="#E4A1FA"/>
</radialGradient>
<clipPath id="clip0_1077_564">
<rect width="72" height="72" fill="white"/>
</clipPath>
<clipPath id="clip1_1077_564">
<rect width="72" height="72" fill="white"/>
</clipPath>
</defs>
</svg>
