<svg width="72" height="72" viewBox="0 0 72 72" fill="none" xmlns="http://www.w3.org/2000/svg">
<g clip-path="url(#clip0_1077_549)">
<g clip-path="url(#clip1_1077_549)">
<path d="M24.2129 36.5934L33.6329 46.2475L18.0522 56.5775C18.0522 56.5775 16.1646 57.4011 13.9315 54.9999C11.6985 52.5988 12.4506 51.0293 12.4506 51.0293L24.2129 36.5934Z" fill="url(#paint0_radial_1077_549)"/>
<path d="M25.1846 34.2239L36 46.012L25.2114 53.5604C25.2114 53.5604 22.023 54.8368 18.3439 50.8115C14.6649 46.786 16.1948 44.3939 16.1948 44.3939L25.1846 34.2239Z" fill="url(#paint1_radial_1077_549)"/>
<path d="M38.9589 13.3343L58.7836 33.7106L32.58 50.2167C32.58 50.2167 28.8453 50.0599 24.5567 45.3597C20.2683 40.6596 21.6095 35.8127 21.6095 35.8127L38.9589 13.3343Z" fill="url(#paint2_radial_1077_549)"/>
<path d="M57.374 15.6345C62.7331 21.4823 63.6024 29.3803 59.3148 33.275C55.0273 37.1698 47.2071 35.5864 41.848 29.7385C36.4886 23.8906 35.6198 15.9927 39.9072 12.098C44.1946 8.20324 52.0148 9.78661 57.374 15.6345Z" fill="url(#paint3_radial_1077_549)"/>
<path d="M58.0721 31.32C54.5544 34.5237 48.047 33.1217 43.5374 28.1883C39.0279 23.255 38.2238 16.6586 41.7416 13.455C45.2593 10.2512 51.7667 11.6533 56.2763 16.5867C60.7856 21.52 61.5898 28.1164 58.0721 31.32Z" fill="url(#paint4_radial_1077_549)"/>
<path opacity="0.85" d="M59.3539 28.9213C60.2393 24.3405 59.3303 20.8045 55.8841 16.8854C52.4379 12.9663 47.1953 11.21 43.673 13.0782C39.3248 15.3843 48.2039 13.903 53.2185 19.8064C57.5269 24.8785 58.5385 33.1406 59.3539 28.9213Z" fill="url(#paint5_radial_1077_549)"/>
<path opacity="0.4" d="M50.2007 25.3925C50.2569 26.851 49.1111 27.8805 47.6415 27.692C46.1718 27.5036 44.9349 26.1686 44.8787 24.71C44.8225 23.2516 45.9683 22.2221 47.4379 22.4106C48.9075 22.5989 50.1446 23.934 50.2007 25.3925Z" fill="url(#paint6_radial_1077_549)"/>
<path opacity="0.6" d="M36.9091 21.2094L26.5569 34.3852C26.4622 36.4541 28.3959 39.5047 30.1151 40.7682L41.1628 29.9939C39.5507 28.3074 36.9459 24.2655 36.9091 21.2094Z" fill="url(#paint7_radial_1077_549)"/>
<path fill-rule="evenodd" clip-rule="evenodd" d="M20.276 9.9632L21.678 12.0513L24.1644 11.4069L22.5444 13.3419L23.9464 15.4301L21.5432 14.5378L19.9233 16.4728L20.058 13.9863L17.6548 13.094L20.1412 12.4496L20.276 9.9632ZM58.464 52.5714L58.6478 56.1881L62.0384 57.1254L58.7613 58.4232L58.9451 62.0399L56.7359 59.2254L53.459 60.5232L55.3707 57.4859L53.1617 54.6713L56.5523 55.6087L58.464 52.5714ZM15.4909 24.3716L16.1525 21.207L13.7878 23.3718L11.0321 21.7541L12.3263 24.7098L9.96167 26.8745L13.1262 26.5364L14.4205 29.492L15.0821 26.3274L18.2466 25.9892L15.4909 24.3716Z" fill="url(#paint8_linear_1077_549)"/>
</g>
</g>
<defs>
<radialGradient id="paint0_radial_1077_549" cx="0" cy="0" r="1" gradientUnits="userSpaceOnUse" gradientTransform="translate(36.6781 32.7468) rotate(135) scale(34.4351)">
<stop stop-color="#99421D"/>
<stop offset="0.333333" stop-color="#99161D"/>
<stop offset="0.666667" stop-color="#7D1845"/>
<stop offset="1" stop-color="#59216E"/>
</radialGradient>
<radialGradient id="paint1_radial_1077_549" cx="0" cy="0" r="1" gradientUnits="userSpaceOnUse" gradientTransform="translate(42.5033 27.4184) rotate(135) scale(43.9375 43.9179)">
<stop stop-color="#EF7744"/>
<stop offset="0.333333" stop-color="#E50914"/>
<stop offset="0.666667" stop-color="#A70D53"/>
<stop offset="1" stop-color="#792A95"/>
</radialGradient>
<radialGradient id="paint2_radial_1077_549" cx="0" cy="0" r="1" gradientUnits="userSpaceOnUse" gradientTransform="translate(42.2137 29.2004) rotate(135) scale(31.3769)">
<stop stop-color="#FB540D"/>
<stop offset="0.333333" stop-color="#E50914"/>
<stop offset="0.666667" stop-color="#A70D53"/>
<stop offset="1" stop-color="#792A95"/>
</radialGradient>
<radialGradient id="paint3_radial_1077_549" cx="0" cy="0" r="1" gradientUnits="userSpaceOnUse" gradientTransform="translate(57.3781 14.9995) rotate(134.326) scale(23.7139 23.7074)">
<stop stop-color="#FFDCCC"/>
<stop offset="0.333333" stop-color="#FFBDC0"/>
<stop offset="0.666667" stop-color="#F89DC6"/>
<stop offset="1" stop-color="#E4A1FA"/>
</radialGradient>
<radialGradient id="paint4_radial_1077_549" cx="0" cy="0" r="1" gradientUnits="userSpaceOnUse" gradientTransform="translate(51.9095 21.4747) rotate(141.875) scale(9.73615 12.6403)">
<stop offset="0.307292" stop-color="#F89DC6"/>
<stop offset="0.645392" stop-color="#E75094"/>
<stop offset="1" stop-color="#59216E"/>
</radialGradient>
<radialGradient id="paint5_radial_1077_549" cx="0" cy="0" r="1" gradientUnits="userSpaceOnUse" gradientTransform="translate(55.5287 15.8795) rotate(135) scale(12.972)">
<stop stop-color="white"/>
<stop offset="1" stop-color="white" stop-opacity="0"/>
</radialGradient>
<radialGradient id="paint6_radial_1077_549" cx="0" cy="0" r="1" gradientUnits="userSpaceOnUse" gradientTransform="translate(49.0549 23.1434) rotate(131.079) scale(5.01676 5.92373)">
<stop stop-color="white"/>
<stop offset="1" stop-color="white" stop-opacity="0"/>
</radialGradient>
<radialGradient id="paint7_radial_1077_549" cx="0" cy="0" r="1" gradientUnits="userSpaceOnUse" gradientTransform="translate(36.8638 29.2294) rotate(137.622) scale(13.3904)">
<stop stop-color="#FFA984"/>
<stop offset="1" stop-color="#F7636B" stop-opacity="0"/>
</radialGradient>
<linearGradient id="paint8_linear_1077_549" x1="44.5316" y1="28.0125" x2="24.411" y2="48.1331" gradientUnits="userSpaceOnUse">
<stop stop-color="#EF7744"/>
<stop offset="0.333333" stop-color="#E50914"/>
<stop offset="0.666667" stop-color="#A70D53"/>
<stop offset="1" stop-color="#792A95"/>
</linearGradient>
<clipPath id="clip0_1077_549">
<rect width="72" height="72" fill="white"/>
</clipPath>
<clipPath id="clip1_1077_549">
<rect width="72" height="72" fill="white"/>
</clipPath>
</defs>
</svg>
